<?xml version="1.0" encoding="utf-8"?>
<!-- Generator: Adobe Illustrator 24.0.0, SVG Export Plug-In . SVG Version: 6.00 Build 0)  -->
<svg version="1.1" id="Layer_1" xmlns="http://www.w3.org/2000/svg" xmlns:xlink="http://www.w3.org/1999/xlink" x="0px" y="0px"
	 viewBox="0 0 595.28 300.52" style="enable-background:new 0 0 595.28 300.52;" xml:space="preserve">
<style type="text/css">
	.st0{fill:url(#SVGID_1_);}
	.st1{fill:#F3AB1D;}
	.st2{fill:url(#SVGID_2_);}
	.st3{fill:url(#SVGID_3_);}
	.st4{fill:url(#SVGID_4_);}
	.st5{fill:url(#SVGID_5_);}
	.st6{fill:url(#SVGID_6_);}
	.st7{fill:url(#SVGID_7_);}
</style>
<g>
	<linearGradient id="SVGID_1_" gradientUnits="userSpaceOnUse" x1="113.4965" y1="153.2609" x2="153.4095" y2="153.2609">
		<stop  offset="0" style="stop-color:#FAC411"/>
		<stop  offset="1" style="stop-color:#BC702B"/>
	</linearGradient>
	<path class="st0" d="M135.8,55.83h-4.7c-9.73,0-17.61,7.88-17.61,17.61v159.65c0,9.73,7.88,17.61,17.61,17.61h4.7
		c9.73,0,17.61-7.88,17.61-17.61V73.43C153.41,63.71,145.53,55.83,135.8,55.83z"/>
	<path class="st1" d="M273.08,55.83h-4.7c-9.73,0-17.61,7.88-17.61,17.61v159.65c0,9.73,7.88,17.61,17.61,17.61h4.7
		c9.73,0,17.61-7.88,17.61-17.61V73.43C290.69,63.71,282.81,55.83,273.08,55.83z"/>
	<linearGradient id="SVGID_2_" gradientUnits="userSpaceOnUse" x1="285.6047" y1="153.2609" x2="186.9969" y2="153.2609">
		<stop  offset="0" style="stop-color:#FAC411"/>
		<stop  offset="1" style="stop-color:#BC702B"/>
	</linearGradient>
	<path class="st2" d="M273.28,55.83H262.1c-6.79,0-12.83,4.28-15.1,10.68l-59.3,167.78c-2.83,8.01,3.11,16.42,11.61,16.42h11.18
		c6.79,0,12.83-4.28,15.1-10.68l59.3-167.78C287.72,64.23,281.78,55.83,273.28,55.83z"/>
	<path class="st1" d="M130.91,55.83h11.18c6.79,0,12.83,4.28,15.1,10.68l59.3,167.78c2.83,8.01-3.11,16.42-11.61,16.42h-11.18
		c-6.79,0-12.83-4.28-15.1-10.68L119.3,72.24C116.47,64.23,122.41,55.83,130.91,55.83z"/>
</g>
<g>
	
		<linearGradient id="SVGID_3_" gradientUnits="userSpaceOnUse" x1="-709.1921" y1="744.6851" x2="-669.2791" y2="744.6851" gradientTransform="matrix(-1 0 0 -1 -234.2609 948.2609)">
		<stop  offset="0" style="stop-color:#FAC411"/>
		<stop  offset="1" style="stop-color:#BC702B"/>
	</linearGradient>
	<path class="st3" d="M454.97,253.79L454.97,253.79c11.02,0,19.96-8.93,19.96-19.96v-60.52c0-11.02-8.93-19.96-19.96-19.96h0
		c-11.02,0-19.96,8.93-19.96,19.96v60.52C435.02,244.86,443.95,253.79,454.97,253.79z"/>
	
		<linearGradient id="SVGID_4_" gradientUnits="userSpaceOnUse" x1="193.3372" y1="992.6269" x2="233.2503" y2="992.6269" gradientTransform="matrix(-6.123234e-17 -1 1 -6.123234e-17 -568.1739 380.0869)">
		<stop  offset="0" style="stop-color:#FAC411"/>
		<stop  offset="1" style="stop-color:#BC702B"/>
	</linearGradient>
	<path class="st4" d="M373.97,166.79L373.97,166.79c0,11.02,8.93,19.96,19.96,19.96h81V171c0-13.34-10.82-24.16-24.16-24.16h-56.84
		C382.91,146.84,373.97,155.77,373.97,166.79z"/>
	
		<linearGradient id="SVGID_5_" gradientUnits="userSpaceOnUse" x1="133.5981" y1="-100.0617" x2="93.6851" y2="-100.0617" gradientTransform="matrix(6.123234e-17 -1 -1 -6.123234e-17 293.7391 347.4783)">
		<stop  offset="0" style="stop-color:#FAC411"/>
		<stop  offset="1" style="stop-color:#BC702B"/>
	</linearGradient>
	<path class="st5" d="M474.93,233.84L474.93,233.84c0,11.02-8.93,19.96-19.96,19.96H352.58c-22.04,0-39.91-17.87-39.91-39.91v0
		h142.3C466,213.88,474.93,222.81,474.93,233.84z"/>
	<linearGradient id="SVGID_6_" gradientUnits="userSpaceOnUse" x1="312.6704" y1="156.3584" x2="352.5834" y2="156.3584">
		<stop  offset="0" style="stop-color:#FAC411"/>
		<stop  offset="1" style="stop-color:#BC702B"/>
	</linearGradient>
	<path class="st6" d="M352.58,58.92L352.58,58.92c-22.04,0-39.91,17.87-39.91,39.91v115.04c0,22.04,17.87,39.91,39.91,39.91h0V58.92
		z"/>
	
		<linearGradient id="SVGID_7_" gradientUnits="userSpaceOnUse" x1="-595.5981" y1="-99.8987" x2="-555.6851" y2="-99.8987" gradientTransform="matrix(6.123234e-17 1 -1 6.123234e-17 293.7391 654.5217)">
		<stop  offset="0" style="stop-color:#FAC411"/>
		<stop  offset="1" style="stop-color:#BC702B"/>
	</linearGradient>
	<path class="st7" d="M474.61,78.88L474.61,78.88c0-11.02-8.93-19.96-19.96-19.96H352.58c-22.04,0-39.91,17.87-39.91,39.91v0h141.98
		C465.67,98.84,474.61,89.9,474.61,78.88z"/>
</g>
</svg>
